solid ESP32CAM_Box_Base
facet normal -0.7933533402912369 0.6087614290087185 0.0
  outer loop
    vertex 12.165063509461097 10.750000000000004 5.0
    vertex 11.767766952966369 10.232233047033633 0.0
    vertex 11.767766952966369 10.232233047033633 5.0
  endloop
endfacet
facet normal -0.7933533402912369 0.6087614290087185 0.0
  outer loop
    vertex 11.767766952966369 10.232233047033633 0.0
    vertex 12.165063509461097 10.750000000000004 5.0
    vertex 12.165063509461097 10.750000000000004 0.0
  endloop
endfacet
facet normal -0.923879532511287 -0.3826834323650895 -0.0
  outer loop
    vertex 12.165063509461094 13.250000000000004 5.0
    vertex 12.414814565722667 12.647047612756307 0.0
    vertex 12.414814565722667 12.647047612756307 5.0
  endloop
endfacet
facet normal -0.923879532511287 -0.3826834323650895 -0.0
  outer loop
    vertex 12.414814565722667 12.647047612756307 0.0
    vertex 12.165063509461094 13.250000000000004 5.0
    vertex 12.165063509461094 13.250000000000004 0.0
  endloop
endfacet
facet normal 0.0 0.0 -1.0
  outer loop
    vertex 0.0 36.0 0.0
    vertex 7.585185434277328 12.647047612756301 0.0
    vertex 0.0 -12.0 0.0
  endloop
endfacet
facet normal 0.0 0.0 -1.0
  outer loop
    vertex 7.585185434277328 12.647047612756301 0.0
    vertex 0.0 36.0 0.0
    vertex 7.834936490538901 13.249999999999998 0.0
  endloop
endfacet
facet normal 0.0 0.0 -1.0
  outer loop
    vertex 7.834936490538901 13.249999999999998 0.0
    vertex 0.0 36.0 0.0
    vertex 8.232233047033628 13.767766952966369 0.0
  endloop
endfacet
facet normal 0.0 0.0 -1.0
  outer loop
    vertex 8.232233047033628 13.767766952966369 0.0
    vertex 0.0 36.0 0.0
    vertex 8.749999999999996 14.165063509461095 0.0
  endloop
endfacet
facet normal 0.0 0.0 -1.0
  outer loop
    vertex 8.749999999999996 14.165063509461095 0.0
    vertex 0.0 36.0 0.0
    vertex 40.0 36.0 0.0
  endloop
endfacet
facet normal 0.0 0.0 -1.0
  outer loop
    vertex 0.0 -12.0 0.0
    vertex 7.585185434277328 12.647047612756301 0.0
    vertex 7.499999999999999 12.0 0.0
  endloop
endfacet
facet normal 0.0 0.0 -1.0
  outer loop
    vertex 8.749999999999996 14.165063509461095 0.0
    vertex 40.0 36.0 0.0
    vertex 9.352952387243695 14.41481456572267 0.0
  endloop
endfacet
facet normal 0.0 0.0 -1.0
  outer loop
    vertex 9.352952387243695 14.41481456572267 0.0
    vertex 40.0 36.0 0.0
    vertex 9.999999999999996 14.499999999999996 0.0
  endloop
endfacet
facet normal 0.0 0.0 -1.0
  outer loop
    vertex 9.999999999999996 14.499999999999996 0.0
    vertex 40.0 36.0 0.0
    vertex 10.647047612756298 14.414814565722676 0.0
  endloop
endfacet
facet normal 0.0 0.0 -1.0
  outer loop
    vertex 10.647047612756298 14.414814565722676 0.0
    vertex 40.0 36.0 0.0
    vertex 11.249999999999996 14.165063509461095 0.0
  endloop
endfacet
facet normal 0.0 0.0 -1.0
  outer loop
    vertex 11.249999999999996 14.165063509461095 0.0
    vertex 40.0 36.0 0.0
    vertex 11.767766952966365 13.767766952966374 0.0
  endloop
endfacet
facet normal 0.0 0.0 -1.0
  outer loop
    vertex 11.767766952966365 13.767766952966374 0.0
    vertex 40.0 36.0 0.0
    vertex 12.165063509461094 13.250000000000004 0.0
  endloop
endfacet
facet normal 0.0 0.0 -1.0
  outer loop
    vertex 12.165063509461094 13.250000000000004 0.0
    vertex 40.0 36.0 0.0
    vertex 12.414814565722667 12.647047612756307 0.0
  endloop
endfacet
facet normal 0.0 0.0 -1.0
  outer loop
    vertex 12.414814565722667 12.647047612756307 0.0
    vertex 40.0 36.0 0.0
    vertex 12.499999999999998 12.0 0.0
  endloop
endfacet
facet normal 0.0 0.0 -1.0
  outer loop
    vertex 0.0 -12.0 0.0
    vertex 8.75 9.834936490538906 0.0
    vertex 40.0 -12.0 0.0
  endloop
endfacet
facet normal 0.0 0.0 -1.0
  outer loop
    vertex 8.75 9.834936490538906 0.0
    vertex 0.0 -12.0 0.0
    vertex 8.232233047033631 10.232233047033633 0.0
  endloop
endfacet
facet normal 0.0 0.0 -1.0
  outer loop
    vertex 8.232233047033631 10.232233047033633 0.0
    vertex 0.0 -12.0 0.0
    vertex 7.834936490538904 10.75 0.0
  endloop
endfacet
facet normal 0.0 0.0 -1.0
  outer loop
    vertex 7.834936490538904 10.75 0.0
    vertex 0.0 -12.0 0.0
    vertex 7.585185434277328 11.352952387243697 0.0
  endloop
endfacet
facet normal 0.0 0.0 -1.0
  outer loop
    vertex 7.585185434277328 11.352952387243697 0.0
    vertex 0.0 -12.0 0.0
    vertex 7.499999999999999 12.0 0.0
  endloop
endfacet
facet normal 0.0 0.0 -1.0
  outer loop
    vertex 40.0 -12.0 0.0
    vertex 8.75 9.834936490538906 0.0
    vertex 9.352952387243699 9.585185434277331 0.0
  endloop
endfacet
facet normal 0.0 0.0 -1.0
  outer loop
    vertex 40.0 -12.0 0.0
    vertex 9.352952387243699 9.585185434277331 0.0
    vertex 10.0 9.5 0.0
  endloop
endfacet
facet normal 0.0 0.0 -1.0
  outer loop
    vertex 40.0 -12.0 0.0
    vertex 10.0 9.5 0.0
    vertex 10.647047612756305 9.585185434277331 0.0
  endloop
endfacet
facet normal 0.0 0.0 -1.0
  outer loop
    vertex 40.0 -12.0 0.0
    vertex 10.647047612756305 9.585185434277331 0.0
    vertex 11.25 9.834936490538906 0.0
  endloop
endfacet
facet normal 0.0 0.0 -1.0
  outer loop
    vertex 40.0 -12.0 0.0
    vertex 11.25 9.834936490538906 0.0
    vertex 11.767766952966369 10.232233047033633 0.0
  endloop
endfacet
facet normal 0.0 0.0 -1.0
  outer loop
    vertex 40.0 -12.0 0.0
    vertex 11.767766952966369 10.232233047033633 0.0
    vertex 12.165063509461097 10.750000000000004 0.0
  endloop
endfacet
facet normal 0.0 0.0 -1.0
  outer loop
    vertex 40.0 -12.0 0.0
    vertex 12.165063509461097 10.750000000000004 0.0
    vertex 12.41481456572267 11.352952387243699 0.0
  endloop
endfacet
facet normal 0.0 0.0 -1.0
  outer loop
    vertex 40.0 -12.0 0.0
    vertex 12.41481456572267 11.352952387243699 0.0
    vertex 12.499999999999998 12.0 0.0
  endloop
endfacet
facet normal 0.0 0.0 -1.0
  outer loop
    vertex 40.0 -12.0 0.0
    vertex 12.499999999999998 12.0 0.0
    vertex 40.0 36.0 0.0
  endloop
endfacet
facet normal 0.3826834323650895 0.923879532511287 0.0
  outer loop
    vertex 8.75 9.834936490538906 5.0
    vertex 9.352952387243699 9.585185434277331 0.0
    vertex 8.75 9.834936490538906 0.0
  endloop
endfacet
facet normal 0.3826834323650895 0.923879532511287 0.0
  outer loop
    vertex 9.352952387243699 9.585185434277331 0.0
    vertex 8.75 9.834936490538906 5.0
    vertex 9.352952387243699 9.585185434277331 5.0
  endloop
endfacet
facet normal 0.3826834323650895 -0.923879532511287 0.0
  outer loop
    vertex 9.352952387243695 14.41481456572267 5.0
    vertex 8.749999999999996 14.165063509461095 0.0
    vertex 9.352952387243695 14.41481456572267 0.0
  endloop
endfacet
facet normal 0.3826834323650895 -0.923879532511287 0.0
  outer loop
    vertex 8.749999999999996 14.165063509461095 0.0
    vertex 9.352952387243695 14.41481456572267 5.0
    vertex 8.749999999999996 14.165063509461095 5.0
  endloop
endfacet
facet normal 0.9914448613738104 0.13052619222005157 0.0
  outer loop
    vertex 7.499999999999999 12.0 0.0
    vertex 7.585185434277328 11.352952387243697 5.0
    vertex 7.585185434277328 11.352952387243697 0.0
  endloop
endfacet
facet normal 0.9914448613738104 0.13052619222005157 0.0
  outer loop
    vertex 7.585185434277328 11.352952387243697 5.0
    vertex 7.499999999999999 12.0 0.0
    vertex 7.499999999999999 12.0 5.0
  endloop
endfacet
facet normal 0.0 1.0 0.0
  outer loop
    vertex 0.0 36.0 5.0
    vertex 40.0 36.0 0.0
    vertex 0.0 36.0 0.0
  endloop
endfacet
facet normal 0.0 1.0 0.0
  outer loop
    vertex 40.0 36.0 0.0
    vertex 0.0 36.0 5.0
    vertex 40.0 36.0 5.0
  endloop
endfacet
facet normal 0.7933533402912359 -0.6087614290087195 0.0
  outer loop
    vertex 8.232233047033628 13.767766952966369 0.0
    vertex 7.834936490538901 13.249999999999998 5.0
    vertex 7.834936490538901 13.249999999999998 0.0
  endloop
endfacet
facet normal 0.7933533402912359 -0.6087614290087195 0.0
  outer loop
    vertex 7.834936490538901 13.249999999999998 5.0
    vertex 8.232233047033628 13.767766952966369 0.0
    vertex 8.232233047033628 13.767766952966369 5.0
  endloop
endfacet
facet normal -0.7933533402912333 -0.608761429008723 -0.0
  outer loop
    vertex 11.767766952966365 13.767766952966374 5.0
    vertex 12.165063509461094 13.250000000000004 0.0
    vertex 12.165063509461094 13.250000000000004 5.0
  endloop
endfacet
facet normal -0.7933533402912333 -0.608761429008723 -0.0
  outer loop
    vertex 12.165063509461094 13.250000000000004 0.0
    vertex 11.767766952966365 13.767766952966374 5.0
    vertex 11.767766952966365 13.767766952966374 0.0
  endloop
endfacet
facet normal 0.6087614290087205 -0.7933533402912352 0.0
  outer loop
    vertex 8.749999999999996 14.165063509461095 5.0
    vertex 8.232233047033628 13.767766952966369 0.0
    vertex 8.749999999999996 14.165063509461095 0.0
  endloop
endfacet
facet normal 0.6087614290087205 -0.7933533402912352 0.0
  outer loop
    vertex 8.232233047033628 13.767766952966369 0.0
    vertex 8.749999999999996 14.165063509461095 5.0
    vertex 8.232233047033628 13.767766952966369 5.0
  endloop
endfacet
facet normal 0.13052619222005188 0.9914448613738104 0.0
  outer loop
    vertex 9.352952387243699 9.585185434277331 5.0
    vertex 10.0 9.5 0.0
    vertex 9.352952387243699 9.585185434277331 0.0
  endloop
endfacet
facet normal 0.13052619222005188 0.9914448613738104 0.0
  outer loop
    vertex 10.0 9.5 0.0
    vertex 9.352952387243699 9.585185434277331 5.0
    vertex 10.0 9.5 5.0
  endloop
endfacet
facet normal -0.9914448613738106 0.13052619222004974 0.0
  outer loop
    vertex 12.499999999999998 12.0 5.0
    vertex 12.41481456572267 11.352952387243699 0.0
    vertex 12.41481456572267 11.352952387243699 5.0
  endloop
endfacet
facet normal -0.9914448613738106 0.13052619222004974 0.0
  outer loop
    vertex 12.41481456572267 11.352952387243699 0.0
    vertex 12.499999999999998 12.0 5.0
    vertex 12.499999999999998 12.0 0.0
  endloop
endfacet
facet normal 1.0 0.0 0.0
  outer loop
    vertex 40.0 36.0 0.0
    vertex 40.0 -12.0 5.0
    vertex 40.0 -12.0 0.0
  endloop
endfacet
facet normal 1.0 0.0 0.0
  outer loop
    vertex 40.0 -12.0 5.0
    vertex 40.0 36.0 0.0
    vertex 40.0 3.599999999999999 5.0
  endloop
endfacet
facet normal 1.0 0.0 0.0
  outer loop
    vertex 40.0 3.599999999999999 5.0
    vertex 40.0 36.0 0.0
    vertex 40.0 20.399999999999995 5.0
  endloop
endfacet
facet normal 1.0 0.0 0.0
  outer loop
    vertex 40.0 20.399999999999995 5.0
    vertex 40.0 36.0 0.0
    vertex 40.0 36.0 5.0
  endloop
endfacet
facet normal -1.0 0.0 0.0
  outer loop
    vertex 0.0 36.0 5.0
    vertex 0.0 -12.0 0.0
    vertex 0.0 -12.0 5.0
  endloop
endfacet
facet normal -1.0 0.0 0.0
  outer loop
    vertex 0.0 -12.0 0.0
    vertex 0.0 36.0 5.0
    vertex 0.0 36.0 0.0
  endloop
endfacet
facet normal -0.0 -1.0 -0.0
  outer loop
    vertex 40.0 -12.0 5.0
    vertex 0.0 -12.0 0.0
    vertex 40.0 -12.0 0.0
  endloop
endfacet
facet normal -0.0 -1.0 -0.0
  outer loop
    vertex 0.0 -12.0 0.0
    vertex 40.0 -12.0 5.0
    vertex 0.0 -12.0 5.0
  endloop
endfacet
facet normal -0.6087614290087205 -0.7933533402912352 -0.0
  outer loop
    vertex 11.767766952966365 13.767766952966374 5.0
    vertex 11.249999999999996 14.165063509461095 0.0
    vertex 11.767766952966365 13.767766952966374 0.0
  endloop
endfacet
facet normal -0.6087614290087205 -0.7933533402912352 -0.0
  outer loop
    vertex 11.249999999999996 14.165063509461095 0.0
    vertex 11.767766952966365 13.767766952966374 5.0
    vertex 11.249999999999996 14.165063509461095 5.0
  endloop
endfacet
facet normal -0.6288459054658319 -5.58025046774774e-17 0.7775299525927334
  outer loop
    vertex 21.091098891773658 6.1000000000000005 7.5
    vertex 18.0 20.399999999999995 5.0
    vertex 18.0 3.599999999999999 5.0
  endloop
endfacet
facet normal -0.6288459054658319 -5.58025046774774e-17 0.7775299525927334
  outer loop
    vertex 18.0 20.399999999999995 5.0
    vertex 21.091098891773658 6.1000000000000005 7.5
    vertex 21.091098891773655 17.900000000000002 7.5
  endloop
endfacet
facet normal 0.7933533402912352 0.6087614290087205 0.0
  outer loop
    vertex 7.834936490538904 10.75 0.0
    vertex 8.232233047033631 10.232233047033633 5.0
    vertex 8.232233047033631 10.232233047033633 0.0
  endloop
endfacet
facet normal 0.7933533402912352 0.6087614290087205 0.0
  outer loop
    vertex 8.232233047033631 10.232233047033633 5.0
    vertex 7.834936490538904 10.75 0.0
    vertex 7.834936490538904 10.75 5.0
  endloop
endfacet
facet normal -0.9914448613738103 -0.13052619222005343 -0.0
  outer loop
    vertex 12.414814565722667 12.647047612756307 5.0
    vertex 12.499999999999998 12.0 0.0
    vertex 12.499999999999998 12.0 5.0
  endloop
endfacet
facet normal -0.9914448613738103 -0.13052619222005343 -0.0
  outer loop
    vertex 12.499999999999998 12.0 0.0
    vertex 12.414814565722667 12.647047612756307 5.0
    vertex 12.414814565722667 12.647047612756307 0.0
  endloop
endfacet
facet normal 0.0 1.0 0.0
  outer loop
    vertex 23.971482129121057 17.900000000000002 19.682323793166383
    vertex 39.408901108226345 17.900000000000002 7.5
    vertex 21.091098891773655 17.900000000000002 7.5
  endloop
endfacet
facet normal 0.0 1.0 0.0
  outer loop
    vertex 39.408901108226345 17.900000000000002 7.5
    vertex 23.971482129121057 17.900000000000002 19.682323793166383
    vertex 29.000000000000004 17.900000000000002 15.834936490538901
  endloop
endfacet
facet normal 0.0 1.0 0.0
  outer loop
    vertex 39.408901108226345 17.900000000000002 7.5
    vertex 29.000000000000004 17.900000000000002 15.834936490538901
    vertex 29.6029523872437 17.900000000000002 15.585185434277326
  endloop
endfacet
facet normal 0.0 1.0 0.0
  outer loop
    vertex 39.408901108226345 17.900000000000002 7.5
    vertex 29.6029523872437 17.900000000000002 15.585185434277326
    vertex 30.25 17.900000000000002 15.499999999999996
  endloop
endfacet
facet normal 0.0 1.0 0.0
  outer loop
    vertex 29.000000000000004 17.900000000000002 15.834936490538901
    vertex 23.971482129121057 17.900000000000002 19.682323793166383
    vertex 28.482233047033635 17.900000000000002 16.232233047033628
  endloop
endfacet
facet normal 0.0 1.0 0.0
  outer loop
    vertex 28.482233047033635 17.900000000000002 16.232233047033628
    vertex 23.971482129121057 17.900000000000002 19.682323793166383
    vertex 28.084936490538905 17.900000000000002 16.749999999999996
  endloop
endfacet
facet normal 0.0 1.0 0.0
  outer loop
    vertex 28.084936490538905 17.900000000000002 16.749999999999996
    vertex 23.971482129121057 17.900000000000002 19.682323793166383
    vertex 27.835185434277328 17.900000000000002 17.352952387243693
  endloop
endfacet
facet normal 0.0 1.0 0.0
  outer loop
    vertex 27.835185434277328 17.900000000000002 17.352952387243693
    vertex 23.971482129121057 17.900000000000002 19.682323793166383
    vertex 27.75 17.900000000000002 17.999999999999996
  endloop
endfacet
facet normal 0.0 1.0 0.0
  outer loop
    vertex 27.75 17.900000000000002 17.999999999999996
    vertex 23.971482129121057 17.900000000000002 19.682323793166383
    vertex 27.835185434277328 17.900000000000002 18.6470476127563
  endloop
endfacet
facet normal 0.0 1.0 0.0
  outer loop
    vertex 27.835185434277328 17.900000000000002 18.6470476127563
    vertex 23.971482129121057 17.900000000000002 19.682323793166383
    vertex 28.084936490538905 17.900000000000002 19.25
  endloop
endfacet
facet normal 0.0 1.0 0.0
  outer loop
    vertex 28.084936490538905 17.900000000000002 19.25
    vertex 23.971482129121057 17.900000000000002 19.682323793166383
    vertex 28.482233047033628 17.900000000000002 19.767766952966365
  endloop
endfacet
facet normal 0.0 1.0 0.0
  outer loop
    vertex 28.482233047033628 17.900000000000002 19.767766952966365
    vertex 23.971482129121057 17.900000000000002 19.682323793166383
    vertex 24.620834875401147 17.900000000000002 21.249999999999996
  endloop
endfacet
facet normal 0.0 1.0 0.0
  outer loop
    vertex 28.482233047033628 17.900000000000002 19.767766952966365
    vertex 24.620834875401147 17.900000000000002 21.249999999999996
    vertex 28.999999999999996 17.900000000000002 20.165063509461095
  endloop
endfacet
facet normal 0.0 1.0 0.0
  outer loop
    vertex 28.999999999999996 17.900000000000002 20.165063509461095
    vertex 24.620834875401147 17.900000000000002 21.249999999999996
    vertex 29.6029523872437 17.900000000000002 20.41481456572267
  endloop
endfacet
facet normal 0.0 1.0 0.0
  outer loop
    vertex 29.6029523872437 17.900000000000002 20.41481456572267
    vertex 24.620834875401147 17.900000000000002 21.249999999999996
    vertex 30.25 17.900000000000002 20.5
  endloop
endfacet
facet normal 0.0 1.0 0.0
  outer loop
    vertex 39.408901108226345 17.900000000000002 7.5
    vertex 31.500000000000004 17.900000000000002 15.834936490538901
    vertex 36.52851787087895 17.900000000000002 19.682323793166383
  endloop
endfacet
facet normal 0.0 1.0 0.0
  outer loop
    vertex 31.500000000000004 17.900000000000002 15.834936490538901
    vertex 39.408901108226345 17.900000000000002 7.5
    vertex 30.897047612756303 17.900000000000002 15.585185434277326
  endloop
endfacet
facet normal 0.0 1.0 0.0
  outer loop
    vertex 30.897047612756303 17.900000000000002 15.585185434277326
    vertex 39.408901108226345 17.900000000000002 7.5
    vertex 30.25 17.900000000000002 15.499999999999996
  endloop
endfacet
facet normal 0.0 1.0 0.0
  outer loop
    vertex 36.52851787087895 17.900000000000002 19.682323793166383
    vertex 31.500000000000004 17.900000000000002 15.834936490538901
    vertex 32.01776695296637 17.900000000000002 16.232233047033628
  endloop
endfacet
facet normal 0.0 1.0 0.0
  outer loop
    vertex 36.52851787087895 17.900000000000002 19.682323793166383
    vertex 32.01776695296637 17.900000000000002 16.232233047033628
    vertex 32.4150635094611 17.900000000000002 16.749999999999996
  endloop
endfacet
facet normal 0.0 1.0 0.0
  outer loop
    vertex 36.52851787087895 17.900000000000002 19.682323793166383
    vertex 32.4150635094611 17.900000000000002 16.749999999999996
    vertex 32.66481456572267 17.900000000000002 17.352952387243697
  endloop
endfacet
facet normal 0.0 1.0 0.0
  outer loop
    vertex 36.52851787087895 17.900000000000002 19.682323793166383
    vertex 32.66481456572267 17.900000000000002 17.352952387243697
    vertex 32.75 17.900000000000002 17.999999999999996
  endloop
endfacet
facet normal 0.0 1.0 0.0
  outer loop
    vertex 36.52851787087895 17.900000000000002 19.682323793166383
    vertex 32.75 17.900000000000002 17.999999999999996
    vertex 32.66481456572267 17.900000000000002 18.647047612756303
  endloop
endfacet
facet normal 0.0 1.0 0.0
  outer loop
    vertex 36.52851787087895 17.900000000000002 19.682323793166383
    vertex 32.66481456572267 17.900000000000002 18.647047612756303
    vertex 32.4150635094611 17.900000000000002 19.25
  endloop
endfacet
facet normal 0.0 1.0 0.0
  outer loop
    vertex 36.52851787087895 17.900000000000002 19.682323793166383
    vertex 32.4150635094611 17.900000000000002 19.25
    vertex 32.01776695296637 17.900000000000002 19.76776695296637
  endloop
endfacet
facet normal 0.0 1.0 0.0
  outer loop
    vertex 36.52851787087895 17.900000000000002 19.682323793166383
    vertex 32.01776695296637 17.900000000000002 19.76776695296637
    vertex 35.879165124598856 17.900000000000002 21.249999999999996
  endloop
endfacet
facet normal 0.0 1.0 0.0
  outer loop
    vertex 35.879165124598856 17.900000000000002 21.249999999999996
    vertex 32.01776695296637 17.900000000000002 19.76776695296637
    vertex 31.5 17.900000000000002 20.165063509461095
  endloop
endfacet
facet normal 0.0 1.0 0.0
  outer loop
    vertex 35.879165124598856 17.900000000000002 21.249999999999996
    vertex 31.5 17.900000000000002 20.165063509461095
    vertex 30.897047612756303 17.900000000000002 20.41481456572267
  endloop
endfacet
facet normal 0.0 1.0 0.0
  outer loop
    vertex 35.879165124598856 17.900000000000002 21.249999999999996
    vertex 30.897047612756303 17.900000000000002 20.41481456572267
    vertex 30.25 17.900000000000002 20.5
  endloop
endfacet
facet normal 0.0 1.0 0.0
  outer loop
    vertex 35.879165124598856 17.900000000000002 21.249999999999996
    vertex 30.25 17.900000000000002 20.5
    vertex 24.620834875401147 17.900000000000002 21.249999999999996
  endloop
endfacet
facet normal 0.0 1.0 0.0
  outer loop
    vertex 35.879165124598856 17.900000000000002 21.249999999999996
    vertex 24.620834875401147 17.900000000000002 21.249999999999996
    vertex 25.653805922287443 17.900000000000002 22.596194077712557
  endloop
endfacet
facet normal 0.0 1.0 0.0
  outer loop
    vertex 35.879165124598856 17.900000000000002 21.249999999999996
    vertex 25.653805922287443 17.900000000000002 22.596194077712557
    vertex 34.84619407771256 17.900000000000002 22.596194077712557
  endloop
endfacet
facet normal 0.0 1.0 0.0
  outer loop
    vertex 34.84619407771256 17.900000000000002 22.596194077712557
    vertex 25.653805922287443 17.900000000000002 22.596194077712557
    vertex 27.0 17.900000000000002 23.629165124598845
  endloop
endfacet
facet normal 0.0 1.0 0.0
  outer loop
    vertex 34.84619407771256 17.900000000000002 22.596194077712557
    vertex 27.0 17.900000000000002 23.629165124598845
    vertex 33.5 17.900000000000002 23.62916512459885
  endloop
endfacet
facet normal 0.0 1.0 0.0
  outer loop
    vertex 33.5 17.900000000000002 23.62916512459885
    vertex 27.0 17.900000000000002 23.629165124598845
    vertex 28.567676206833614 17.900000000000002 24.27851787087894
  endloop
endfacet
facet normal 0.0 1.0 0.0
  outer loop
    vertex 33.5 17.900000000000002 23.62916512459885
    vertex 28.567676206833614 17.900000000000002 24.27851787087894
    vertex 31.932323793166383 17.900000000000002 24.27851787087894
  endloop
endfacet
facet normal 0.0 1.0 0.0
  outer loop
    vertex 31.932323793166383 17.900000000000002 24.27851787087894
    vertex 28.567676206833614 17.900000000000002 24.27851787087894
    vertex 30.25 17.900000000000002 24.499999999999996
  endloop
endfacet
facet normal 0.0 0.0 1.0
  outer loop
    vertex 0.0 -12.0 5.0
    vertex 7.585185434277328 11.352952387243697 5.0
    vertex 0.0 36.0 5.0
  endloop
endfacet
facet normal 0.0 0.0 1.0
  outer loop
    vertex 7.585185434277328 11.352952387243697 5.0
    vertex 0.0 -12.0 5.0
    vertex 7.834936490538904 10.75 5.0
  endloop
endfacet
facet normal 0.0 0.0 1.0
  outer loop
    vertex 7.834936490538904 10.75 5.0
    vertex 0.0 -12.0 5.0
    vertex 8.232233047033631 10.232233047033633 5.0
  endloop
endfacet
facet normal 0.0 0.0 1.0
  outer loop
    vertex 8.232233047033631 10.232233047033633 5.0
    vertex 0.0 -12.0 5.0
    vertex 8.75 9.834936490538906 5.0
  endloop
endfacet
facet normal 0.0 0.0 1.0
  outer loop
    vertex 8.75 9.834936490538906 5.0
    vertex 0.0 -12.0 5.0
    vertex 40.0 -12.0 5.0
  endloop
endfacet
facet normal 0.0 0.0 1.0
  outer loop
    vertex 0.0 36.0 5.0
    vertex 7.585185434277328 11.352952387243697 5.0
    vertex 7.499999999999999 12.0 5.0
  endloop
endfacet
facet normal 0.0 0.0 1.0
  outer loop
    vertex 8.75 9.834936490538906 5.0
    vertex 40.0 -12.0 5.0
    vertex 9.352952387243699 9.585185434277331 5.0
  endloop
endfacet
facet normal 0.0 0.0 1.0
  outer loop
    vertex 9.352952387243699 9.585185434277331 5.0
    vertex 40.0 -12.0 5.0
    vertex 18.0 3.599999999999999 5.0
  endloop
endfacet
facet normal 0.0 0.0 1.0
  outer loop
    vertex 9.352952387243699 9.585185434277331 5.0
    vertex 18.0 3.599999999999999 5.0
    vertex 10.0 9.5 5.0
  endloop
endfacet
facet normal 0.0 0.0 1.0
  outer loop
    vertex 10.0 9.5 5.0
    vertex 18.0 3.599999999999999 5.0
    vertex 10.647047612756305 9.585185434277331 5.0
  endloop
endfacet
facet normal 0.0 0.0 1.0
  outer loop
    vertex 10.647047612756305 9.585185434277331 5.0
    vertex 18.0 3.599999999999999 5.0
    vertex 11.25 9.834936490538906 5.0
  endloop
endfacet
facet normal 0.0 0.0 1.0
  outer loop
    vertex 11.25 9.834936490538906 5.0
    vertex 18.0 3.599999999999999 5.0
    vertex 11.767766952966369 10.232233047033633 5.0
  endloop
endfacet
facet normal 0.0 0.0 1.0
  outer loop
    vertex 11.767766952966369 10.232233047033633 5.0
    vertex 18.0 3.599999999999999 5.0
    vertex 12.165063509461097 10.750000000000004 5.0
  endloop
endfacet
facet normal 0.0 0.0 1.0
  outer loop
    vertex 12.165063509461097 10.750000000000004 5.0
    vertex 18.0 3.599999999999999 5.0
    vertex 12.41481456572267 11.352952387243699 5.0
  endloop
endfacet
facet normal 0.0 0.0 1.0
  outer loop
    vertex 12.41481456572267 11.352952387243699 5.0
    vertex 18.0 3.599999999999999 5.0
    vertex 12.499999999999998 12.0 5.0
  endloop
endfacet
facet normal 0.0 0.0 1.0
  outer loop
    vertex 18.0 3.599999999999999 5.0
    vertex 40.0 -12.0 5.0
    vertex 40.0 3.599999999999999 5.0
  endloop
endfacet
facet normal 0.0 0.0 1.0
  outer loop
    vertex 0.0 36.0 5.0
    vertex 8.749999999999996 14.165063509461095 5.0
    vertex 40.0 36.0 5.0
  endloop
endfacet
facet normal 0.0 0.0 1.0
  outer loop
    vertex 8.749999999999996 14.165063509461095 5.0
    vertex 0.0 36.0 5.0
    vertex 8.232233047033628 13.767766952966369 5.0
  endloop
endfacet
facet normal 0.0 0.0 1.0
  outer loop
    vertex 8.232233047033628 13.767766952966369 5.0
    vertex 0.0 36.0 5.0
    vertex 7.834936490538901 13.249999999999998 5.0
  endloop
endfacet
facet normal 0.0 0.0 1.0
  outer loop
    vertex 7.834936490538901 13.249999999999998 5.0
    vertex 0.0 36.0 5.0
    vertex 7.585185434277328 12.647047612756301 5.0
  endloop
endfacet
facet normal 0.0 0.0 1.0
  outer loop
    vertex 7.585185434277328 12.647047612756301 5.0
    vertex 0.0 36.0 5.0
    vertex 7.499999999999999 12.0 5.0
  endloop
endfacet
facet normal 0.0 0.0 1.0
  outer loop
    vertex 40.0 36.0 5.0
    vertex 8.749999999999996 14.165063509461095 5.0
    vertex 9.352952387243695 14.41481456572267 5.0
  endloop
endfacet
facet normal 0.0 0.0 1.0
  outer loop
    vertex 40.0 36.0 5.0
    vertex 9.352952387243695 14.41481456572267 5.0
    vertex 18.0 20.399999999999995 5.0
  endloop
endfacet
facet normal 0.0 0.0 1.0
  outer loop
    vertex 18.0 20.399999999999995 5.0
    vertex 9.352952387243695 14.41481456572267 5.0
    vertex 9.999999999999996 14.499999999999996 5.0
  endloop
endfacet
facet normal 0.0 0.0 1.0
  outer loop
    vertex 18.0 20.399999999999995 5.0
    vertex 9.999999999999996 14.499999999999996 5.0
    vertex 10.647047612756298 14.414814565722676 5.0
  endloop
endfacet
facet normal 0.0 0.0 1.0
  outer loop
    vertex 18.0 20.399999999999995 5.0
    vertex 10.647047612756298 14.414814565722676 5.0
    vertex 11.249999999999996 14.165063509461095 5.0
  endloop
endfacet
facet normal 0.0 0.0 1.0
  outer loop
    vertex 18.0 20.399999999999995 5.0
    vertex 11.249999999999996 14.165063509461095 5.0
    vertex 11.767766952966365 13.767766952966374 5.0
  endloop
endfacet
facet normal 0.0 0.0 1.0
  outer loop
    vertex 18.0 20.399999999999995 5.0
    vertex 11.767766952966365 13.767766952966374 5.0
    vertex 12.165063509461094 13.250000000000004 5.0
  endloop
endfacet
facet normal 0.0 0.0 1.0
  outer loop
    vertex 18.0 20.399999999999995 5.0
    vertex 12.165063509461094 13.250000000000004 5.0
    vertex 12.414814565722667 12.647047612756307 5.0
  endloop
endfacet
facet normal 0.0 0.0 1.0
  outer loop
    vertex 18.0 20.399999999999995 5.0
    vertex 12.414814565722667 12.647047612756307 5.0
    vertex 12.499999999999998 12.0 5.0
  endloop
endfacet
facet normal 0.0 0.0 1.0
  outer loop
    vertex 18.0 20.399999999999995 5.0
    vertex 12.499999999999998 12.0 5.0
    vertex 18.0 3.599999999999999 5.0
  endloop
endfacet
facet normal 0.0 0.0 1.0
  outer loop
    vertex 40.0 36.0 5.0
    vertex 18.0 20.399999999999995 5.0
    vertex 40.0 20.399999999999995 5.0
  endloop
endfacet
facet normal 1.5574674627114686e-18 -0.7071067811865476 0.7071067811865475
  outer loop
    vertex 39.408901108226345 6.1000000000000005 7.5
    vertex 18.0 3.599999999999999 5.0
    vertex 40.0 3.599999999999999 5.0
  endloop
endfacet
facet normal 1.5574674627114686e-18 -0.7071067811865476 0.7071067811865475
  outer loop
    vertex 18.0 3.599999999999999 5.0
    vertex 39.408901108226345 6.1000000000000005 7.5
    vertex 21.091098891773658 6.1000000000000005 7.5
  endloop
endfacet
facet normal -5.2953893732189916e-17 0.7071067811865476 0.7071067811865475
  outer loop
    vertex 21.091098891773655 17.900000000000002 7.5
    vertex 40.0 20.399999999999995 5.0
    vertex 18.0 20.399999999999995 5.0
  endloop
endfacet
facet normal -5.2953893732189916e-17 0.7071067811865476 0.7071067811865475
  outer loop
    vertex 40.0 20.399999999999995 5.0
    vertex 21.091098891773655 17.900000000000002 7.5
    vertex 39.408901108226345 17.900000000000002 7.5
  endloop
endfacet
facet normal -0.9731680709594616 -1.0950893659465772e-16 0.23009542730145818
  outer loop
    vertex 23.971482129121057 17.900000000000002 19.682323793166383
    vertex 21.091098891773658 6.1000000000000005 7.5
    vertex 23.971482129121057 6.1000000000000005 19.682323793166383
  endloop
endfacet
facet normal -0.9731680709594616 -1.0950893659465772e-16 0.23009542730145818
  outer loop
    vertex 21.091098891773658 6.1000000000000005 7.5
    vertex 23.971482129121057 17.900000000000002 19.682323793166383
    vertex 21.091098891773655 17.900000000000002 7.5
  endloop
endfacet
facet normal -0.3826834323650902 0.9238795325112866 0.0
  outer loop
    vertex 10.647047612756305 9.585185434277331 5.0
    vertex 11.25 9.834936490538906 0.0
    vertex 10.647047612756305 9.585185434277331 0.0
  endloop
endfacet
facet normal -0.3826834323650902 0.9238795325112866 0.0
  outer loop
    vertex 11.25 9.834936490538906 0.0
    vertex 10.647047612756305 9.585185434277331 5.0
    vertex 11.25 9.834936490538906 5.0
  endloop
endfacet
facet normal 0.6087614290087195 0.7933533402912359 0.0
  outer loop
    vertex 8.232233047033631 10.232233047033633 5.0
    vertex 8.75 9.834936490538906 0.0
    vertex 8.232233047033631 10.232233047033633 0.0
  endloop
endfacet
facet normal 0.6087614290087195 0.7933533402912359 0.0
  outer loop
    vertex 8.75 9.834936490538906 0.0
    vertex 8.232233047033631 10.232233047033633 5.0
    vertex 8.75 9.834936490538906 5.0
  endloop
endfacet
facet normal 0.9238795325112877 -0.3826834323650877 0.0
  outer loop
    vertex 7.834936490538901 13.249999999999998 0.0
    vertex 7.585185434277328 12.647047612756301 5.0
    vertex 7.585185434277328 12.647047612756301 0.0
  endloop
endfacet
facet normal 0.9238795325112877 -0.3826834323650877 0.0
  outer loop
    vertex 7.585185434277328 12.647047612756301 5.0
    vertex 7.834936490538901 13.249999999999998 0.0
    vertex 7.834936490538901 13.249999999999998 5.0
  endloop
endfacet
facet normal -0.7933533402912353 0.0 0.6087614290087208
  outer loop
    vertex 25.653805922287443 17.900000000000002 22.596194077712557
    vertex 24.620834875401147 6.1000000000000005 21.249999999999996
    vertex 25.653805922287443 6.1000000000000005 22.596194077712557
  endloop
endfacet
facet normal -0.7933533402912353 0.0 0.6087614290087208
  outer loop
    vertex 24.620834875401147 6.1000000000000005 21.249999999999996
    vertex 25.653805922287443 17.900000000000002 22.596194077712557
    vertex 24.620834875401147 17.900000000000002 21.249999999999996
  endloop
endfacet
facet normal 0.923879532511286 0.3826834323650921 0.0
  outer loop
    vertex 7.585185434277328 11.352952387243697 0.0
    vertex 7.834936490538904 10.75 5.0
    vertex 7.834936490538904 10.75 0.0
  endloop
endfacet
facet normal 0.923879532511286 0.3826834323650921 0.0
  outer loop
    vertex 7.834936490538904 10.75 5.0
    vertex 7.585185434277328 11.352952387243697 0.0
    vertex 7.585185434277328 11.352952387243697 5.0
  endloop
endfacet
facet normal -0.3826834323650895 -0.923879532511287 -0.0
  outer loop
    vertex 11.249999999999996 14.165063509461095 5.0
    vertex 10.647047612756298 14.414814565722676 0.0
    vertex 11.249999999999996 14.165063509461095 0.0
  endloop
endfacet
facet normal -0.3826834323650895 -0.923879532511287 -0.0
  outer loop
    vertex 10.647047612756298 14.414814565722676 0.0
    vertex 11.249999999999996 14.165063509461095 5.0
    vertex 10.647047612756298 14.414814565722676 5.0
  endloop
endfacet
facet normal -0.13052619222004763 -0.9914448613738109 -0.0
  outer loop
    vertex 10.647047612756298 14.414814565722676 5.0
    vertex 9.999999999999996 14.499999999999996 0.0
    vertex 10.647047612756298 14.414814565722676 0.0
  endloop
endfacet
facet normal -0.13052619222004763 -0.9914448613738109 -0.0
  outer loop
    vertex 9.999999999999996 14.499999999999996 0.0
    vertex 10.647047612756298 14.414814565722676 5.0
    vertex 9.999999999999996 14.499999999999996 5.0
  endloop
endfacet
facet normal -0.6087614290087238 0.0 0.793353340291233
  outer loop
    vertex 32.01776695296637 6.1000000000000005 16.232233047033628
    vertex 31.500000000000004 17.900000000000002 15.834936490538901
    vertex 31.500000000000004 6.1000000000000005 15.834936490538901
  endloop
endfacet
facet normal -0.6087614290087238 0.0 0.793353340291233
  outer loop
    vertex 31.500000000000004 17.900000000000002 15.834936490538901
    vertex 32.01776695296637 6.1000000000000005 16.232233047033628
    vertex 32.01776695296637 17.900000000000002 16.232233047033628
  endloop
endfacet
facet normal -0.38268343236509095 0.0 0.9238795325112864
  outer loop
    vertex 28.567676206833614 6.1000000000000005 24.27851787087894
    vertex 27.0 17.900000000000002 23.629165124598845
    vertex 27.0 6.1000000000000005 23.629165124598845
  endloop
endfacet
facet normal -0.38268343236509095 0.0 0.9238795325112864
  outer loop
    vertex 27.0 17.900000000000002 23.629165124598845
    vertex 28.567676206833614 6.1000000000000005 24.27851787087894
    vertex 28.567676206833614 17.900000000000002 24.27851787087894
  endloop
endfacet
facet normal -0.99144486137381 -0.0 -0.13052619222005557
  outer loop
    vertex 32.66481456572267 17.900000000000002 18.647047612756303
    vertex 32.75 6.1000000000000005 17.999999999999996
    vertex 32.66481456572267 6.1000000000000005 18.647047612756303
  endloop
endfacet
facet normal -0.99144486137381 -0.0 -0.13052619222005557
  outer loop
    vertex 32.75 6.1000000000000005 17.999999999999996
    vertex 32.66481456572267 17.900000000000002 18.647047612756303
    vertex 32.75 17.900000000000002 17.999999999999996
  endloop
endfacet
facet normal 0.0 -1.0 0.0
  outer loop
    vertex 36.52851787087895 6.1000000000000005 19.682323793166383
    vertex 21.091098891773658 6.1000000000000005 7.5
    vertex 39.408901108226345 6.1000000000000005 7.5
  endloop
endfacet
facet normal 0.0 -1.0 0.0
  outer loop
    vertex 21.091098891773658 6.1000000000000005 7.5
    vertex 36.52851787087895 6.1000000000000005 19.682323793166383
    vertex 31.500000000000004 6.1000000000000005 15.834936490538901
  endloop
endfacet
facet normal 0.0 -1.0 0.0
  outer loop
    vertex 21.091098891773658 6.1000000000000005 7.5
    vertex 31.500000000000004 6.1000000000000005 15.834936490538901
    vertex 30.897047612756303 6.1000000000000005 15.585185434277326
  endloop
endfacet
facet normal 0.0 -1.0 0.0
  outer loop
    vertex 21.091098891773658 6.1000000000000005 7.5
    vertex 30.897047612756303 6.1000000000000005 15.585185434277326
    vertex 30.25 6.1000000000000005 15.499999999999996
  endloop
endfacet
facet normal 0.0 -1.0 0.0
  outer loop
    vertex 31.500000000000004 6.1000000000000005 15.834936490538901
    vertex 36.52851787087895 6.1000000000000005 19.682323793166383
    vertex 32.01776695296637 6.1000000000000005 16.232233047033628
  endloop
endfacet
facet normal 0.0 -1.0 0.0
  outer loop
    vertex 32.01776695296637 6.1000000000000005 16.232233047033628
    vertex 36.52851787087895 6.1000000000000005 19.682323793166383
    vertex 32.4150635094611 6.1000000000000005 16.749999999999996
  endloop
endfacet
facet normal 0.0 -1.0 0.0
  outer loop
    vertex 32.4150635094611 6.1000000000000005 16.749999999999996
    vertex 36.52851787087895 6.1000000000000005 19.682323793166383
    vertex 32.66481456572267 6.1000000000000005 17.352952387243697
  endloop
endfacet
facet normal 0.0 -1.0 0.0
  outer loop
    vertex 32.66481456572267 6.1000000000000005 17.352952387243697
    vertex 36.52851787087895 6.1000000000000005 19.682323793166383
    vertex 32.75 6.1000000000000005 17.999999999999996
  endloop
endfacet
facet normal 0.0 -1.0 0.0
  outer loop
    vertex 32.75 6.1000000000000005 17.999999999999996
    vertex 36.52851787087895 6.1000000000000005 19.682323793166383
    vertex 32.66481456572267 6.1000000000000005 18.647047612756303
  endloop
endfacet
facet normal 0.0 -1.0 0.0
  outer loop
    vertex 32.66481456572267 6.1000000000000005 18.647047612756303
    vertex 36.52851787087895 6.1000000000000005 19.682323793166383
    vertex 32.4150635094611 6.1000000000000005 19.25
  endloop
endfacet
facet normal 0.0 -1.0 0.0
  outer loop
    vertex 32.4150635094611 6.1000000000000005 19.25
    vertex 36.52851787087895 6.1000000000000005 19.682323793166383
    vertex 32.01776695296637 6.1000000000000005 19.76776695296637
  endloop
endfacet
facet normal 0.0 -1.0 0.0
  outer loop
    vertex 32.01776695296637 6.1000000000000005 19.76776695296637
    vertex 36.52851787087895 6.1000000000000005 19.682323793166383
    vertex 35.879165124598856 6.1000000000000005 21.249999999999996
  endloop
endfacet
facet normal 0.0 -1.0 0.0
  outer loop
    vertex 32.01776695296637 6.1000000000000005 19.76776695296637
    vertex 35.879165124598856 6.1000000000000005 21.249999999999996
    vertex 31.5 6.1000000000000005 20.165063509461095
  endloop
endfacet
facet normal 0.0 -1.0 0.0
  outer loop
    vertex 31.5 6.1000000000000005 20.165063509461095
    vertex 35.879165124598856 6.1000000000000005 21.249999999999996
    vertex 30.897047612756303 6.1000000000000005 20.41481456572267
  endloop
endfacet
facet normal 0.0 -1.0 0.0
  outer loop
    vertex 30.897047612756303 6.1000000000000005 20.41481456572267
    vertex 35.879165124598856 6.1000000000000005 21.249999999999996
    vertex 30.25 6.1000000000000005 20.5
  endloop
endfacet
facet normal 0.0 -1.0 0.0
  outer loop
    vertex 21.091098891773658 6.1000000000000005 7.5
    vertex 29.000000000000004 6.1000000000000005 15.834936490538901
    vertex 23.971482129121057 6.1000000000000005 19.682323793166383
  endloop
endfacet
facet normal 0.0 -1.0 0.0
  outer loop
    vertex 29.000000000000004 6.1000000000000005 15.834936490538901
    vertex 21.091098891773658 6.1000000000000005 7.5
    vertex 29.6029523872437 6.1000000000000005 15.585185434277326
  endloop
endfacet
facet normal 0.0 -1.0 0.0
  outer loop
    vertex 29.6029523872437 6.1000000000000005 15.585185434277326
    vertex 21.091098891773658 6.1000000000000005 7.5
    vertex 30.25 6.1000000000000005 15.499999999999996
  endloop
endfacet
facet normal 0.0 -1.0 0.0
  outer loop
    vertex 23.971482129121057 6.1000000000000005 19.682323793166383
    vertex 29.000000000000004 6.1000000000000005 15.834936490538901
    vertex 28.482233047033635 6.1000000000000005 16.232233047033628
  endloop
endfacet
facet normal 0.0 -1.0 0.0
  outer loop
    vertex 23.971482129121057 6.1000000000000005 19.682323793166383
    vertex 28.482233047033635 6.1000000000000005 16.232233047033628
    vertex 28.084936490538905 6.1000000000000005 16.749999999999996
  endloop
endfacet
facet normal 0.0 -1.0 0.0
  outer loop
    vertex 23.971482129121057 6.1000000000000005 19.682323793166383
    vertex 28.084936490538905 6.1000000000000005 16.749999999999996
    vertex 27.835185434277328 6.1000000000000005 17.352952387243693
  endloop
endfacet
facet normal 0.0 -1.0 0.0
  outer loop
    vertex 23.971482129121057 6.1000000000000005 19.682323793166383
    vertex 27.835185434277328 6.1000000000000005 17.352952387243693
    vertex 27.75 6.1000000000000005 17.999999999999996
  endloop
endfacet
facet normal 0.0 -1.0 0.0
  outer loop
    vertex 23.971482129121057 6.1000000000000005 19.682323793166383
    vertex 27.75 6.1000000000000005 17.999999999999996
    vertex 27.835185434277328 6.1000000000000005 18.6470476127563
  endloop
endfacet
facet normal 0.0 -1.0 0.0
  outer loop
    vertex 23.971482129121057 6.1000000000000005 19.682323793166383
    vertex 27.835185434277328 6.1000000000000005 18.6470476127563
    vertex 28.084936490538905 6.1000000000000005 19.25
  endloop
endfacet
facet normal 0.0 -1.0 0.0
  outer loop
    vertex 23.971482129121057 6.1000000000000005 19.682323793166383
    vertex 28.084936490538905 6.1000000000000005 19.25
    vertex 28.482233047033628 6.1000000000000005 19.767766952966365
  endloop
endfacet
facet normal 0.0 -1.0 0.0
  outer loop
    vertex 23.971482129121057 6.1000000000000005 19.682323793166383
    vertex 28.482233047033628 6.1000000000000005 19.767766952966365
    vertex 24.620834875401147 6.1000000000000005 21.249999999999996
  endloop
endfacet
facet normal 0.0 -1.0 0.0
  outer loop
    vertex 24.620834875401147 6.1000000000000005 21.249999999999996
    vertex 28.482233047033628 6.1000000000000005 19.767766952966365
    vertex 28.999999999999996 6.1000000000000005 20.165063509461095
  endloop
endfacet
facet normal 0.0 -1.0 0.0
  outer loop
    vertex 24.620834875401147 6.1000000000000005 21.249999999999996
    vertex 28.999999999999996 6.1000000000000005 20.165063509461095
    vertex 29.6029523872437 6.1000000000000005 20.41481456572267
  endloop
endfacet
facet normal 0.0 -1.0 0.0
  outer loop
    vertex 24.620834875401147 6.1000000000000005 21.249999999999996
    vertex 29.6029523872437 6.1000000000000005 20.41481456572267
    vertex 30.25 6.1000000000000005 20.5
  endloop
endfacet
facet normal 0.0 -1.0 0.0
  outer loop
    vertex 24.620834875401147 6.1000000000000005 21.249999999999996
    vertex 30.25 6.1000000000000005 20.5
    vertex 35.879165124598856 6.1000000000000005 21.249999999999996
  endloop
endfacet
facet normal 0.0 -1.0 0.0
  outer loop
    vertex 24.620834875401147 6.1000000000000005 21.249999999999996
    vertex 35.879165124598856 6.1000000000000005 21.249999999999996
    vertex 34.84619407771256 6.1000000000000005 22.596194077712557
  endloop
endfacet
facet normal 0.0 -1.0 0.0
  outer loop
    vertex 24.620834875401147 6.1000000000000005 21.249999999999996
    vertex 34.84619407771256 6.1000000000000005 22.596194077712557
    vertex 25.653805922287443 6.1000000000000005 22.596194077712557
  endloop
endfacet
facet normal 0.0 -1.0 0.0
  outer loop
    vertex 25.653805922287443 6.1000000000000005 22.596194077712557
    vertex 34.84619407771256 6.1000000000000005 22.596194077712557
    vertex 33.5 6.1000000000000005 23.62916512459885
  endloop
endfacet
facet normal 0.0 -1.0 0.0
  outer loop
    vertex 25.653805922287443 6.1000000000000005 22.596194077712557
    vertex 33.5 6.1000000000000005 23.62916512459885
    vertex 27.0 6.1000000000000005 23.629165124598845
  endloop
endfacet
facet normal 0.0 -1.0 0.0
  outer loop
    vertex 27.0 6.1000000000000005 23.629165124598845
    vertex 33.5 6.1000000000000005 23.62916512459885
    vertex 28.567676206833614 6.1000000000000005 24.27851787087894
  endloop
endfacet
facet normal 0.0 -1.0 0.0
  outer loop
    vertex 28.567676206833614 6.1000000000000005 24.27851787087894
    vertex 33.5 6.1000000000000005 23.62916512459885
    vertex 31.932323793166383 6.1000000000000005 24.27851787087894
  endloop
endfacet
facet normal 0.0 -1.0 0.0
  outer loop
    vertex 28.567676206833614 6.1000000000000005 24.27851787087894
    vertex 31.932323793166383 6.1000000000000005 24.27851787087894
    vertex 30.25 6.1000000000000005 24.499999999999996
  endloop
endfacet
facet normal -0.13052619222005343 0.9914448613738103 0.0
  outer loop
    vertex 10.0 9.5 5.0
    vertex 10.647047612756305 9.585185434277331 0.0
    vertex 10.0 9.5 0.0
  endloop
endfacet
facet normal -0.13052619222005343 0.9914448613738103 0.0
  outer loop
    vertex 10.647047612756305 9.585185434277331 0.0
    vertex 10.0 9.5 5.0
    vertex 10.647047612756305 9.585185434277331 5.0
  endloop
endfacet
facet normal -0.6087614290087205 0.7933533402912352 0.0
  outer loop
    vertex 11.25 9.834936490538906 5.0
    vertex 11.767766952966369 10.232233047033633 0.0
    vertex 11.25 9.834936490538906 0.0
  endloop
endfacet
facet normal -0.6087614290087205 0.7933533402912352 0.0
  outer loop
    vertex 11.767766952966369 10.232233047033633 0.0
    vertex 11.25 9.834936490538906 5.0
    vertex 11.767766952966369 10.232233047033633 5.0
  endloop
endfacet
facet normal 0.13052619222005157 -0.9914448613738104 0.0
  outer loop
    vertex 9.999999999999996 14.499999999999996 5.0
    vertex 9.352952387243695 14.41481456572267 0.0
    vertex 9.999999999999996 14.499999999999996 0.0
  endloop
endfacet
facet normal 0.13052619222005157 -0.9914448613738104 0.0
  outer loop
    vertex 9.352952387243695 14.41481456572267 0.0
    vertex 9.999999999999996 14.499999999999996 5.0
    vertex 9.352952387243695 14.41481456572267 5.0
  endloop
endfacet
facet normal 0.9914448613738104 -0.13052619222005188 0.0
  outer loop
    vertex 7.585185434277328 12.647047612756301 0.0
    vertex 7.499999999999999 12.0 5.0
    vertex 7.499999999999999 12.0 0.0
  endloop
endfacet
facet normal 0.9914448613738104 -0.13052619222005188 0.0
  outer loop
    vertex 7.499999999999999 12.0 5.0
    vertex 7.585185434277328 12.647047612756301 0.0
    vertex 7.585185434277328 12.647047612756301 5.0
  endloop
endfacet
facet normal -0.9238795325112866 0.3826834323650902 0.0
  outer loop
    vertex 12.41481456572267 11.352952387243699 5.0
    vertex 12.165063509461097 10.750000000000004 0.0
    vertex 12.165063509461097 10.750000000000004 5.0
  endloop
endfacet
facet normal -0.9238795325112866 0.3826834323650902 0.0
  outer loop
    vertex 12.165063509461097 10.750000000000004 0.0
    vertex 12.41481456572267 11.352952387243699 5.0
    vertex 12.41481456572267 11.352952387243699 0.0
  endloop
endfacet
facet normal 0.9238795325112842 0.0 -0.3826834323650961
  outer loop
    vertex 27.835185434277328 17.900000000000002 18.6470476127563
    vertex 28.084936490538905 6.1000000000000005 19.25
    vertex 27.835185434277328 6.1000000000000005 18.6470476127563
  endloop
endfacet
facet normal 0.9238795325112842 0.0 -0.3826834323650961
  outer loop
    vertex 28.084936490538905 6.1000000000000005 19.25
    vertex 27.835185434277328 17.900000000000002 18.6470476127563
    vertex 28.084936490538905 17.900000000000002 19.25
  endloop
endfacet
facet normal 0.9731680709594616 4.160495821755072e-18 0.23009542730145785
  outer loop
    vertex 40.0 20.399999999999995 5.0
    vertex 39.408901108226345 6.1000000000000005 7.5
    vertex 40.0 3.599999999999999 5.0
  endloop
endfacet
facet normal 0.9731680709594616 4.160495821755072e-18 0.23009542730145785
  outer loop
    vertex 39.408901108226345 6.1000000000000005 7.5
    vertex 40.0 20.399999999999995 5.0
    vertex 39.408901108226345 17.900000000000002 7.5
  endloop
endfacet
facet normal 0.9731680709594616 4.160495821755072e-18 0.23009542730145785
  outer loop
    vertex 39.408901108226345 6.1000000000000005 7.5
    vertex 39.408901108226345 17.900000000000002 7.5
    vertex 36.52851787087895 6.1000000000000005 19.682323793166383
  endloop
endfacet
facet normal 0.9731680709594616 4.160495821755072e-18 0.23009542730145785
  outer loop
    vertex 36.52851787087895 17.900000000000002 19.682323793166383
    vertex 36.52851787087895 6.1000000000000005 19.682323793166383
    vertex 39.408901108226345 17.900000000000002 7.5
  endloop
endfacet
facet normal 0.9238795325112836 0.0 0.3826834323650976
  outer loop
    vertex 28.084936490538905 17.900000000000002 16.749999999999996
    vertex 27.835185434277328 6.1000000000000005 17.352952387243693
    vertex 28.084936490538905 6.1000000000000005 16.749999999999996
  endloop
endfacet
facet normal 0.9238795325112836 0.0 0.3826834323650976
  outer loop
    vertex 27.835185434277328 6.1000000000000005 17.352952387243693
    vertex 28.084936490538905 17.900000000000002 16.749999999999996
    vertex 27.835185434277328 17.900000000000002 17.352952387243693
  endloop
endfacet
facet normal 0.13052619222005188 0.0 0.9914448613738104
  outer loop
    vertex 30.25 6.1000000000000005 15.499999999999996
    vertex 29.6029523872437 17.900000000000002 15.585185434277326
    vertex 29.6029523872437 6.1000000000000005 15.585185434277326
  endloop
endfacet
facet normal 0.13052619222005188 0.0 0.9914448613738104
  outer loop
    vertex 29.6029523872437 17.900000000000002 15.585185434277326
    vertex 30.25 6.1000000000000005 15.499999999999996
    vertex 30.25 17.900000000000002 15.499999999999996
  endloop
endfacet
facet normal -0.7933533402912359 0.0 0.6087614290087195
  outer loop
    vertex 32.4150635094611 17.900000000000002 16.749999999999996
    vertex 32.01776695296637 6.1000000000000005 16.232233047033628
    vertex 32.4150635094611 6.1000000000000005 16.749999999999996
  endloop
endfacet
facet normal -0.7933533402912359 0.0 0.6087614290087195
  outer loop
    vertex 32.01776695296637 6.1000000000000005 16.232233047033628
    vertex 32.4150635094611 17.900000000000002 16.749999999999996
    vertex 32.01776695296637 17.900000000000002 16.232233047033628
  endloop
endfacet
facet normal 0.6087614290087223 0.0 -0.793353340291234
  outer loop
    vertex 28.999999999999996 17.900000000000002 20.165063509461095
    vertex 28.482233047033628 6.1000000000000005 19.767766952966365
    vertex 28.482233047033628 17.900000000000002 19.767766952966365
  endloop
endfacet
facet normal 0.6087614290087223 0.0 -0.793353340291234
  outer loop
    vertex 28.482233047033628 6.1000000000000005 19.767766952966365
    vertex 28.999999999999996 17.900000000000002 20.165063509461095
    vertex 28.999999999999996 6.1000000000000005 20.165063509461095
  endloop
endfacet
facet normal -0.13052619222005188 0.0 0.9914448613738104
  outer loop
    vertex 30.897047612756303 6.1000000000000005 15.585185434277326
    vertex 30.25 17.900000000000002 15.499999999999996
    vertex 30.25 6.1000000000000005 15.499999999999996
  endloop
endfacet
facet normal -0.13052619222005188 0.0 0.9914448613738104
  outer loop
    vertex 30.25 17.900000000000002 15.499999999999996
    vertex 30.897047612756303 6.1000000000000005 15.585185434277326
    vertex 30.897047612756303 17.900000000000002 15.585185434277326
  endloop
endfacet
facet normal 0.3826834323650872 0.0 -0.9238795325112878
  outer loop
    vertex 29.6029523872437 17.900000000000002 20.41481456572267
    vertex 28.999999999999996 6.1000000000000005 20.165063509461095
    vertex 28.999999999999996 17.900000000000002 20.165063509461095
  endloop
endfacet
facet normal 0.3826834323650872 0.0 -0.9238795325112878
  outer loop
    vertex 28.999999999999996 6.1000000000000005 20.165063509461095
    vertex 29.6029523872437 17.900000000000002 20.41481456572267
    vertex 29.6029523872437 6.1000000000000005 20.41481456572267
  endloop
endfacet
facet normal 0.9914448613738109 0.0 0.13052619222004705
  outer loop
    vertex 27.835185434277328 17.900000000000002 17.352952387243693
    vertex 27.75 6.1000000000000005 17.999999999999996
    vertex 27.835185434277328 6.1000000000000005 17.352952387243693
  endloop
endfacet
facet normal 0.9914448613738109 0.0 0.13052619222004705
  outer loop
    vertex 27.75 6.1000000000000005 17.999999999999996
    vertex 27.835185434277328 17.900000000000002 17.352952387243693
    vertex 27.75 17.900000000000002 17.999999999999996
  endloop
endfacet
facet normal 0.9914448613738109 0.0 -0.13052619222004763
  outer loop
    vertex 27.75 17.900000000000002 17.999999999999996
    vertex 27.835185434277328 6.1000000000000005 18.6470476127563
    vertex 27.75 6.1000000000000005 17.999999999999996
  endloop
endfacet
facet normal 0.9914448613738109 0.0 -0.13052619222004763
  outer loop
    vertex 27.835185434277328 6.1000000000000005 18.6470476127563
    vertex 27.75 17.900000000000002 17.999999999999996
    vertex 27.835185434277328 17.900000000000002 18.6470476127563
  endloop
endfacet
facet normal 0.13052619222005188 0.0 -0.9914448613738104
  outer loop
    vertex 30.25 17.900000000000002 20.5
    vertex 29.6029523872437 6.1000000000000005 20.41481456572267
    vertex 29.6029523872437 17.900000000000002 20.41481456572267
  endloop
endfacet
facet normal 0.13052619222005188 0.0 -0.9914448613738104
  outer loop
    vertex 29.6029523872437 6.1000000000000005 20.41481456572267
    vertex 30.25 17.900000000000002 20.5
    vertex 30.25 6.1000000000000005 20.5
  endloop
endfacet
facet normal -0.13052619222005188 -0.0 -0.9914448613738104
  outer loop
    vertex 30.897047612756303 17.900000000000002 20.41481456572267
    vertex 30.25 6.1000000000000005 20.5
    vertex 30.25 17.900000000000002 20.5
  endloop
endfacet
facet normal -0.13052619222005188 -0.0 -0.9914448613738104
  outer loop
    vertex 30.25 6.1000000000000005 20.5
    vertex 30.897047612756303 17.900000000000002 20.41481456572267
    vertex 30.897047612756303 6.1000000000000005 20.41481456572267
  endloop
endfacet
facet normal -0.3826834323650902 -0.0 -0.9238795325112866
  outer loop
    vertex 31.5 17.900000000000002 20.165063509461095
    vertex 30.897047612756303 6.1000000000000005 20.41481456572267
    vertex 30.897047612756303 17.900000000000002 20.41481456572267
  endloop
endfacet
facet normal -0.3826834323650902 -0.0 -0.9238795325112866
  outer loop
    vertex 30.897047612756303 6.1000000000000005 20.41481456572267
    vertex 31.5 17.900000000000002 20.165063509461095
    vertex 31.5 6.1000000000000005 20.165063509461095
  endloop
endfacet
facet normal -0.7933533402912359 -0.0 -0.6087614290087195
  outer loop
    vertex 32.01776695296637 17.900000000000002 19.76776695296637
    vertex 32.4150635094611 6.1000000000000005 19.25
    vertex 32.01776695296637 6.1000000000000005 19.76776695296637
  endloop
endfacet
facet normal -0.7933533402912359 -0.0 -0.6087614290087195
  outer loop
    vertex 32.4150635094611 6.1000000000000005 19.25
    vertex 32.01776695296637 17.900000000000002 19.76776695296637
    vertex 32.4150635094611 17.900000000000002 19.25
  endloop
endfacet
facet normal 0.6087614290087195 0.0 0.7933533402912359
  outer loop
    vertex 29.000000000000004 6.1000000000000005 15.834936490538901
    vertex 28.482233047033635 17.900000000000002 16.232233047033628
    vertex 28.482233047033635 6.1000000000000005 16.232233047033628
  endloop
endfacet
facet normal 0.6087614290087195 0.0 0.7933533402912359
  outer loop
    vertex 28.482233047033635 17.900000000000002 16.232233047033628
    vertex 29.000000000000004 6.1000000000000005 15.834936490538901
    vertex 29.000000000000004 17.900000000000002 15.834936490538901
  endloop
endfacet
facet normal 0.38268343236508834 0.0 0.9238795325112874
  outer loop
    vertex 33.5 6.1000000000000005 23.62916512459885
    vertex 31.932323793166383 17.900000000000002 24.27851787087894
    vertex 31.932323793166383 6.1000000000000005 24.27851787087894
  endloop
endfacet
facet normal 0.38268343236508834 0.0 0.9238795325112874
  outer loop
    vertex 31.932323793166383 17.900000000000002 24.27851787087894
    vertex 33.5 6.1000000000000005 23.62916512459885
    vertex 33.5 17.900000000000002 23.62916512459885
  endloop
endfacet
facet normal 0.3826834323650902 0.0 0.9238795325112866
  outer loop
    vertex 29.6029523872437 6.1000000000000005 15.585185434277326
    vertex 29.000000000000004 17.900000000000002 15.834936490538901
    vertex 29.000000000000004 6.1000000000000005 15.834936490538901
  endloop
endfacet
facet normal 0.3826834323650902 0.0 0.9238795325112866
  outer loop
    vertex 29.000000000000004 17.900000000000002 15.834936490538901
    vertex 29.6029523872437 6.1000000000000005 15.585185434277326
    vertex 29.6029523872437 17.900000000000002 15.585185434277326
  endloop
endfacet
facet normal 0.7933533402912386 0.0 -0.6087614290087163
  outer loop
    vertex 28.084936490538905 17.900000000000002 19.25
    vertex 28.482233047033628 6.1000000000000005 19.767766952966365
    vertex 28.084936490538905 6.1000000000000005 19.25
  endloop
endfacet
facet normal 0.7933533402912386 0.0 -0.6087614290087163
  outer loop
    vertex 28.482233047033628 6.1000000000000005 19.767766952966365
    vertex 28.084936490538905 17.900000000000002 19.25
    vertex 28.482233047033628 17.900000000000002 19.767766952966365
  endloop
endfacet
facet normal -0.6087614290087195 -0.0 -0.7933533402912359
  outer loop
    vertex 32.01776695296637 17.900000000000002 19.76776695296637
    vertex 31.5 6.1000000000000005 20.165063509461095
    vertex 31.5 17.900000000000002 20.165063509461095
  endloop
endfacet
facet normal -0.6087614290087195 -0.0 -0.7933533402912359
  outer loop
    vertex 31.5 6.1000000000000005 20.165063509461095
    vertex 32.01776695296637 17.900000000000002 19.76776695296637
    vertex 32.01776695296637 6.1000000000000005 19.76776695296637
  endloop
endfacet
facet normal 0.13052619222005205 -9.79450168907945e-19 0.9914448613738105
  outer loop
    vertex 31.932323793166383 6.1000000000000005 24.27851787087894
    vertex 30.25 17.900000000000002 24.499999999999996
    vertex 30.25 6.1000000000000005 24.499999999999996
  endloop
endfacet
facet normal 0.13052619222005205 -9.79450168907945e-19 0.9914448613738105
  outer loop
    vertex 30.25 17.900000000000002 24.499999999999996
    vertex 31.932323793166383 6.1000000000000005 24.27851787087894
    vertex 31.932323793166383 17.900000000000002 24.27851787087894
  endloop
endfacet
facet normal -0.9914448613738109 0.0 0.13052619222004763
  outer loop
    vertex 32.75 17.900000000000002 17.999999999999996
    vertex 32.66481456572267 6.1000000000000005 17.352952387243697
    vertex 32.75 6.1000000000000005 17.999999999999996
  endloop
endfacet
facet normal -0.9914448613738109 0.0 0.13052619222004763
  outer loop
    vertex 32.66481456572267 6.1000000000000005 17.352952387243697
    vertex 32.75 17.900000000000002 17.999999999999996
    vertex 32.66481456572267 17.900000000000002 17.352952387243697
  endloop
endfacet
facet normal 0.7933533402912353 0.0 0.6087614290087208
  outer loop
    vertex 35.879165124598856 17.900000000000002 21.249999999999996
    vertex 34.84619407771256 6.1000000000000005 22.596194077712557
    vertex 35.879165124598856 6.1000000000000005 21.249999999999996
  endloop
endfacet
facet normal 0.7933533402912353 0.0 0.6087614290087208
  outer loop
    vertex 34.84619407771256 6.1000000000000005 22.596194077712557
    vertex 35.879165124598856 17.900000000000002 21.249999999999996
    vertex 34.84619407771256 17.900000000000002 22.596194077712557
  endloop
endfacet
facet normal -0.13052619222005163 -9.794501689079598e-19 0.9914448613738105
  outer loop
    vertex 30.25 6.1000000000000005 24.499999999999996
    vertex 28.567676206833614 17.900000000000002 24.27851787087894
    vertex 28.567676206833614 6.1000000000000005 24.27851787087894
  endloop
endfacet
facet normal -0.13052619222005163 -9.794501689079598e-19 0.9914448613738105
  outer loop
    vertex 28.567676206833614 17.900000000000002 24.27851787087894
    vertex 30.25 6.1000000000000005 24.499999999999996
    vertex 30.25 17.900000000000002 24.499999999999996
  endloop
endfacet
facet normal 0.7933533402912359 0.0 0.6087614290087195
  outer loop
    vertex 28.482233047033635 17.900000000000002 16.232233047033628
    vertex 28.084936490538905 6.1000000000000005 16.749999999999996
    vertex 28.482233047033635 6.1000000000000005 16.232233047033628
  endloop
endfacet
facet normal 0.7933533402912359 0.0 0.6087614290087195
  outer loop
    vertex 28.084936490538905 6.1000000000000005 16.749999999999996
    vertex 28.482233047033635 17.900000000000002 16.232233047033628
    vertex 28.084936490538905 17.900000000000002 16.749999999999996
  endloop
endfacet
facet normal -0.9238795325112866 -0.0 -0.3826834323650902
  outer loop
    vertex 32.4150635094611 17.900000000000002 19.25
    vertex 32.66481456572267 6.1000000000000005 18.647047612756303
    vertex 32.4150635094611 6.1000000000000005 19.25
  endloop
endfacet
facet normal -0.9238795325112866 -0.0 -0.3826834323650902
  outer loop
    vertex 32.66481456572267 6.1000000000000005 18.647047612756303
    vertex 32.4150635094611 17.900000000000002 19.25
    vertex 32.66481456572267 17.900000000000002 18.647047612756303
  endloop
endfacet
facet normal -0.9238795325112871 0.0 0.38268343236508884
  outer loop
    vertex 24.620834875401147 17.900000000000002 21.249999999999996
    vertex 23.971482129121057 6.1000000000000005 19.682323793166383
    vertex 24.620834875401147 6.1000000000000005 21.249999999999996
  endloop
endfacet
facet normal -0.9238795325112871 0.0 0.38268343236508884
  outer loop
    vertex 23.971482129121057 6.1000000000000005 19.682323793166383
    vertex 24.620834875401147 17.900000000000002 21.249999999999996
    vertex 23.971482129121057 17.900000000000002 19.682323793166383
  endloop
endfacet
facet normal -0.3826834323650872 0.0 0.9238795325112878
  outer loop
    vertex 31.500000000000004 6.1000000000000005 15.834936490538901
    vertex 30.897047612756303 17.900000000000002 15.585185434277326
    vertex 30.897047612756303 6.1000000000000005 15.585185434277326
  endloop
endfacet
facet normal -0.3826834323650872 0.0 0.9238795325112878
  outer loop
    vertex 30.897047612756303 17.900000000000002 15.585185434277326
    vertex 31.500000000000004 6.1000000000000005 15.834936490538901
    vertex 31.500000000000004 17.900000000000002 15.834936490538901
  endloop
endfacet
facet normal -0.9238795325112842 0.0 0.3826834323650961
  outer loop
    vertex 32.66481456572267 17.900000000000002 17.352952387243697
    vertex 32.4150635094611 6.1000000000000005 16.749999999999996
    vertex 32.66481456572267 6.1000000000000005 17.352952387243697
  endloop
endfacet
facet normal -0.9238795325112842 0.0 0.3826834323650961
  outer loop
    vertex 32.4150635094611 6.1000000000000005 16.749999999999996
    vertex 32.66481456572267 17.900000000000002 17.352952387243697
    vertex 32.4150635094611 17.900000000000002 16.749999999999996
  endloop
endfacet
facet normal 0.9238795325112865 0.0 0.3826834323650903
  outer loop
    vertex 36.52851787087895 17.900000000000002 19.682323793166383
    vertex 35.879165124598856 6.1000000000000005 21.249999999999996
    vertex 36.52851787087895 6.1000000000000005 19.682323793166383
  endloop
endfacet
facet normal 0.9238795325112865 0.0 0.3826834323650903
  outer loop
    vertex 35.879165124598856 6.1000000000000005 21.249999999999996
    vertex 36.52851787087895 17.900000000000002 19.682323793166383
    vertex 35.879165124598856 17.900000000000002 21.249999999999996
  endloop
endfacet
facet normal -0.6087614290087195 0.0 0.7933533402912359
  outer loop
    vertex 27.0 6.1000000000000005 23.629165124598845
    vertex 25.653805922287443 17.900000000000002 22.596194077712557
    vertex 25.653805922287443 6.1000000000000005 22.596194077712557
  endloop
endfacet
facet normal -0.6087614290087195 0.0 0.7933533402912359
  outer loop
    vertex 25.653805922287443 17.900000000000002 22.596194077712557
    vertex 27.0 6.1000000000000005 23.629165124598845
    vertex 27.0 17.900000000000002 23.629165124598845
  endloop
endfacet
facet normal 0.6087614290087208 0.0 0.7933533402912353
  outer loop
    vertex 34.84619407771256 6.1000000000000005 22.596194077712557
    vertex 33.5 17.900000000000002 23.62916512459885
    vertex 33.5 6.1000000000000005 23.62916512459885
  endloop
endfacet
facet normal 0.6087614290087208 0.0 0.7933533402912353
  outer loop
    vertex 33.5 17.900000000000002 23.62916512459885
    vertex 34.84619407771256 6.1000000000000005 22.596194077712557
    vertex 34.84619407771256 17.900000000000002 22.596194077712557
  endloop
endfacet
endsolid ESP32CAM_Box_Base
