solid ESP32CAM_Box_Cover
facet normal 0.0 -1.0 0.0
  outer loop
    vertex 78.7 0.0 1.9999999999999998
    vertex 0.0 0.0 0.0
    vertex 80.2 0.0 0.0
  endloop
endfacet
facet normal 0.0 -1.0 0.0
  outer loop
    vertex 0.0 0.0 0.0
    vertex 78.7 0.0 1.9999999999999998
    vertex 1.5 0.0 1.9999999999999998
  endloop
endfacet
facet normal 0.0 1.0 0.0
  outer loop
    vertex 35.0 3.0 0.49999999999999994
    vertex 45.0 3.0 0.0
    vertex 35.0 3.0 0.0
  endloop
endfacet
facet normal 0.0 1.0 0.0
  outer loop
    vertex 45.0 3.0 0.0
    vertex 35.0 3.0 0.49999999999999994
    vertex 45.0 3.0 0.49999999999999994
  endloop
endfacet
facet normal 1.0 0.0 0.0
  outer loop
    vertex 35.0 3.9999999999999996 0.0
    vertex 35.0 3.0 0.49999999999999994
    vertex 35.0 3.0 0.0
  endloop
endfacet
facet normal 1.0 0.0 0.0
  outer loop
    vertex 35.0 3.0 0.49999999999999994
    vertex 35.0 3.9999999999999996 0.0
    vertex 35.0 3.9999999999999996 0.49999999999999994
  endloop
endfacet
facet normal 6.161033708384996e-19 0.7999999999999996 0.6000000000000008
  outer loop
    vertex 1.4999999999999987 31.25 1.9999999999999998
    vertex 80.2 32.75 0.0
    vertex 0.0 32.75 0.0
  endloop
endfacet
facet normal 6.161033708384996e-19 0.7999999999999996 0.6000000000000008
  outer loop
    vertex 80.2 32.75 0.0
    vertex 1.4999999999999987 31.25 1.9999999999999998
    vertex 78.7 31.25 1.9999999999999998
  endloop
endfacet
facet normal 0.0 -1.0 0.0
  outer loop
    vertex 45.0 3.9999999999999996 0.49999999999999994
    vertex 35.0 3.9999999999999996 0.0
    vertex 45.0 3.9999999999999996 0.0
  endloop
endfacet
facet normal 0.0 -1.0 0.0
  outer loop
    vertex 35.0 3.9999999999999996 0.0
    vertex 45.0 3.9999999999999996 0.49999999999999994
    vertex 35.0 3.9999999999999996 0.49999999999999994
  endloop
endfacet
facet normal -1.0 -0.0 -0.0
  outer loop
    vertex 45.0 3.9999999999999996 0.49999999999999994
    vertex 45.0 3.0 0.0
    vertex 45.0 3.0 0.49999999999999994
  endloop
endfacet
facet normal -1.0 -0.0 -0.0
  outer loop
    vertex 45.0 3.0 0.0
    vertex 45.0 3.9999999999999996 0.49999999999999994
    vertex 45.0 3.9999999999999996 0.0
  endloop
endfacet
facet normal 0.0 0.0 -1.0
  outer loop
    vertex 45.0 3.9999999999999996 0.49999999999999994
    vertex 35.0 3.0 0.49999999999999994
    vertex 35.0 3.9999999999999996 0.49999999999999994
  endloop
endfacet
facet normal 0.0 0.0 -1.0
  outer loop
    vertex 35.0 3.0 0.49999999999999994
    vertex 45.0 3.9999999999999996 0.49999999999999994
    vertex 45.0 3.0 0.49999999999999994
  endloop
endfacet
facet normal 0.0 0.0 1.0
  outer loop
    vertex 1.5 0.0 1.9999999999999998
    vertex 78.7 31.25 1.9999999999999998
    vertex 1.4999999999999987 31.25 1.9999999999999998
  endloop
endfacet
facet normal 0.0 0.0 1.0
  outer loop
    vertex 78.7 31.25 1.9999999999999998
    vertex 1.5 0.0 1.9999999999999998
    vertex 78.7 0.0 1.9999999999999998
  endloop
endfacet
facet normal 0.0 0.0 -1.0
  outer loop
    vertex 80.2 32.75 0.0
    vertex 0.0 0.0 0.0
    vertex 0.0 32.75 0.0
  endloop
endfacet
facet normal 0.0 0.0 -1.0
  outer loop
    vertex 0.0 0.0 0.0
    vertex 80.2 32.75 0.0
    vertex 35.0 3.9999999999999996 0.0
  endloop
endfacet
facet normal 0.0 0.0 -1.0
  outer loop
    vertex 35.0 3.9999999999999996 0.0
    vertex 80.2 32.75 0.0
    vertex 45.0 3.9999999999999996 0.0
  endloop
endfacet
facet normal 0.0 0.0 -1.0
  outer loop
    vertex 45.0 3.9999999999999996 0.0
    vertex 80.2 32.75 0.0
    vertex 45.0 3.0 0.0
  endloop
endfacet
facet normal 0.0 0.0 -1.0
  outer loop
    vertex 0.0 0.0 0.0
    vertex 35.0 3.0 0.0
    vertex 80.2 0.0 0.0
  endloop
endfacet
facet normal 0.0 0.0 -1.0
  outer loop
    vertex 35.0 3.0 0.0
    vertex 0.0 0.0 0.0
    vertex 35.0 3.9999999999999996 0.0
  endloop
endfacet
facet normal 0.0 0.0 -1.0
  outer loop
    vertex 80.2 0.0 0.0
    vertex 35.0 3.0 0.0
    vertex 45.0 3.0 0.0
  endloop
endfacet
facet normal 0.0 0.0 -1.0
  outer loop
    vertex 80.2 0.0 0.0
    vertex 45.0 3.0 0.0
    vertex 80.2 32.75 0.0
  endloop
endfacet
facet normal -0.8000000000000002 -1.7756052293692844e-17 0.6
  outer loop
    vertex 1.4999999999999987 31.25 1.9999999999999998
    vertex 0.0 0.0 0.0
    vertex 1.5 0.0 1.9999999999999998
  endloop
endfacet
facet normal -0.8000000000000002 -1.7756052293692844e-17 0.6
  outer loop
    vertex 0.0 0.0 0.0
    vertex 1.4999999999999987 31.25 1.9999999999999998
    vertex 0.0 32.75 0.0
  endloop
endfacet
facet normal 0.8000000000000006 1.3764381623017716e-19 0.5999999999999993
  outer loop
    vertex 80.2 32.75 0.0
    vertex 78.7 0.0 1.9999999999999998
    vertex 80.2 0.0 0.0
  endloop
endfacet
facet normal 0.8000000000000006 1.3764381623017716e-19 0.5999999999999993
  outer loop
    vertex 78.7 0.0 1.9999999999999998
    vertex 80.2 32.75 0.0
    vertex 78.7 31.25 1.9999999999999998
  endloop
endfacet
endsolid ESP32CAM_Box_Cover
